<svg width="31" height="24" viewBox="0 0 31 24" fill="none" xmlns="http://www.w3.org/2000/svg">
<path d="M7.18035 0L11.6384 4.8211L8.49115 11.0121L15.1274 9.82227L18.1479 17.114L30.98 0.288492L7.18035 0ZM6.36425 10.437L7.59954 9.42342L6.00509 9.9278L5.83857 9.69545L6.49978 9.05554L5.63721 9.40309C2.33892 10.6839 4.39135e-06 13.8757 4.39135e-06 17.6174C-0.00119297 18.8129 0.242479 19.9959 0.716 21.0937C1.18952 22.1914 1.88285 23.1805 2.75326 24C2.00059 22.6804 1.6058 21.187 1.60801 19.6678C1.60801 15.9726 3.94789 12.6791 7.17938 11.3838L7.58889 10.3964L6.62079 10.8194L6.34876 10.4515L6.36425 10.437ZM11.9966 7.89577L14.0596 4.25574L26.1908 1.41729L11.9966 7.89577Z" fill="white"/>
</svg>
