<svg width="23" height="43" viewBox="0 0 23 43" fill="none" xmlns="http://www.w3.org/2000/svg">
<path d="M15.1331 0.635657C10.8241 1.15356 7.80995 3.72235 6.78451 7.75162C6.44269 9.09817 6.32875 10.5276 6.32875 13.3968V15.862H3.42851H0.517901L0.258951 16.1209L0 16.3799L0.0310741 20.2641C0.0621482 23.8273 0.0725062 24.1587 0.248593 24.3245C0.414321 24.4902 0.714704 24.5109 3.37672 24.542L6.32875 24.5731L6.34947 33.5328L6.38054 42.5028L6.67057 42.7514L6.96059 43H10.8345C13.5069 43 14.7913 42.9586 14.9673 42.8861C15.1124 42.8136 15.2781 42.6271 15.3402 42.451C15.4127 42.2439 15.4438 39.2193 15.4438 33.3567V24.5731L18.7895 24.542C20.6228 24.5213 22.2076 24.4695 22.3112 24.4177C22.7152 24.2209 22.7462 23.9827 22.7773 20.7302C22.8187 16.991 22.7773 16.3488 22.4355 16.007L22.1869 15.7584H18.8102H15.4335L15.4645 12.9306C15.4956 10.165 15.4956 10.1029 15.7442 9.70929C15.9099 9.45034 16.1585 9.23282 16.4693 9.09817C16.9043 8.90137 17.1943 8.88065 19.6388 8.83922C22.6426 8.79779 22.7152 8.77707 22.8912 8.12451C23.0363 7.59625 23.0363 1.74397 22.8912 1.22607C22.7048 0.552793 22.5494 0.532077 18.9448 0.542435C17.215 0.552793 15.506 0.594225 15.1331 0.635657Z" fill="white"/>
</svg>
