<svg width="34" height="35" viewBox="0 0 34 35" fill="none" xmlns="http://www.w3.org/2000/svg">
<path d="M9.92788 1.05495C7.08331 1.20781 4.91665 1.97877 3.3415 3.38112C1.23466 5.26199 0.310837 7.44194 0.111451 11.0176C-0.0679963 14.2543 -0.021473 24.29 0.184559 26.1044C0.463699 28.6433 1.3277 30.6239 2.78987 32.0993C3.97289 33.289 5.11603 33.9602 6.79087 34.4454C8.58534 34.9638 9.91458 35.0303 18.0229 34.9904C24.5362 34.9638 25.0613 34.9439 26.3971 34.6714C30.3184 33.8805 32.9769 31.2021 33.7345 27.2875C34.0004 25.9183 34.0137 25.1939 33.9937 17.3647L33.9671 9.85451L33.8143 9.02373C33.4155 6.85043 32.6313 5.2487 31.3286 3.91946C29.4876 2.03859 27.4339 1.24769 23.9048 1.0483C22.4759 0.96855 11.4033 0.975196 9.92788 1.05495ZM24.503 4.23848C26.4835 4.43122 27.8527 4.95626 28.8695 5.91996C29.6272 6.6311 30.1124 7.422 30.4447 8.48539C30.6972 9.28293 30.8102 10.0207 30.8833 11.3831C30.9697 12.9317 30.9697 23.1269 30.8833 24.6489C30.7305 27.4071 30.2253 28.7696 28.9028 30.039C27.8527 31.0359 26.643 31.5477 24.8021 31.7537C23.1538 31.9398 10.865 31.9398 9.31643 31.7537C8.02706 31.6008 6.96367 31.2818 6.18607 30.8166C5.74077 30.5574 4.86348 29.7466 4.53781 29.3013C4.01276 28.5901 3.6007 27.5134 3.40796 26.3703C3.22851 25.2936 3.1687 23.1402 3.1687 17.9629C3.1687 12.8719 3.22851 10.7783 3.40132 9.72158C3.69375 7.90053 4.37831 6.61781 5.54139 5.6807C6.15284 5.18888 6.59813 4.94962 7.42226 4.67712C8.29291 4.39134 9.2699 4.24512 10.8251 4.17201C12.593 4.09226 23.5659 4.14543 24.503 4.23848Z" fill="white"/>
<path d="M25.5531 6.91706C24.5561 7.20284 23.9513 8.19313 24.1175 9.26316C24.1906 9.7284 24.3501 10.0474 24.6824 10.3731C25.0878 10.7851 25.3803 10.9048 26.0515 10.938C26.6032 10.9646 26.6563 10.9579 27.0618 10.7586C27.5203 10.5326 27.8061 10.2402 28.0454 9.75498C28.2448 9.33627 28.2514 8.51879 28.052 8.08679C27.6134 7.14303 26.5434 6.64456 25.5531 6.91706Z" fill="white"/>
<path d="M15.9028 9.29613C14.5669 9.47558 13.2443 9.98733 12.0746 10.7716C11.4499 11.1903 10.2137 12.4265 9.79496 13.0579C9.13699 14.0548 8.63852 15.2644 8.41255 16.4341C8.27298 17.132 8.29292 19.0129 8.44578 19.7107C9.2101 23.2598 11.7888 25.8451 15.3445 26.6161C16.1155 26.7823 18.003 26.7823 18.774 26.6161C20.5684 26.224 21.9243 25.4929 23.2136 24.2102C24.5229 22.9142 25.2872 21.4985 25.6794 19.6575C25.8455 18.8733 25.8455 17.1187 25.6794 16.3344C24.9217 12.7654 22.2898 10.1203 18.754 9.38918C18.1226 9.25625 16.5475 9.20308 15.9028 9.29613ZM18.4284 12.5461C20.4289 13.0579 21.9708 14.5998 22.5158 16.6335C22.6288 17.0456 22.662 17.358 22.662 17.996C22.662 18.953 22.5224 19.5711 22.1436 20.3687C20.934 22.9208 18.0097 24.2235 15.3977 23.3728C13.4836 22.7547 12.0945 21.2593 11.5628 19.2588C11.4033 18.6606 11.41 17.338 11.5695 16.7C12.2474 14.0615 14.6533 12.2537 17.2985 12.3866C17.6375 12.3999 18.1426 12.473 18.4284 12.5461Z" fill="white"/>
</svg>
