<svg width="23" height="28" viewBox="0 0 23 28" fill="none" xmlns="http://www.w3.org/2000/svg">
<path d="M11.1989 0C6.62065 0 2.86865 3.7408 2.86865 8.30648C2.86865 10.0755 3.43369 11.7197 4.38989 13.071L10.1823 23.0846C10.9934 24.1444 11.5327 23.9431 12.2072 23.0286L18.5963 12.1562C18.7251 11.9227 18.8264 11.674 18.9146 11.4201C19.32 10.4321 19.5285 9.37442 19.5284 8.30648C19.5287 3.7408 15.7778 0 11.1989 0ZM11.1989 3.892C13.6646 3.892 15.6252 5.84808 15.6252 8.30648C15.6252 10.7649 13.6646 12.7201 11.1989 12.7201C8.73353 12.7201 6.77213 10.7652 6.77213 8.30648C6.77213 5.84808 8.73353 3.89228 11.1989 3.89228V3.892Z" fill="white"/>
<path d="M16.4956 13.6942L16.4822 13.7295C16.4864 13.7189 16.4898 13.708 16.494 13.6973L16.4956 13.6942ZM6.72168 19.336C2.7664 19.8948 0 21.2318 0 23.2C0 25.851 4.62224 28 11.2 28C17.7778 28 22.4 25.851 22.4 23.2C22.4 21.2318 19.6339 19.8948 15.6789 19.336L15.1309 20.2689C18.1118 20.6825 20.16 21.5516 20.16 22.5602C20.16 23.9742 16.1484 25.1202 11.2 25.1202C6.25156 25.1202 2.24 23.9742 2.24 22.5602C2.23972 21.555 4.27448 20.6867 7.2646 20.2714C7.084 19.9595 6.90228 19.6482 6.7214 19.336H6.72168Z" fill="white"/>
</svg>
