<svg width="40" height="41" viewBox="0 0 40 41" fill="none" xmlns="http://www.w3.org/2000/svg">
<path d="M18.8525 0.828839C14.679 1.18848 11.1914 2.47649 8.06334 4.82668C7.07642 5.56269 5.40368 7.18524 4.5924 8.18052C2.33421 10.9573 0.870561 14.3362 0.310193 18.0079C0.134556 19.1955 0.117829 22.0224 0.276739 23.1934C0.611286 25.6606 1.33056 27.9607 2.36766 29.9429L2.77748 30.704L1.37238 35.8393C0.594559 38.6578 -0.0243543 40.9829 0.000736807 40.9997C0.0174642 41.0164 2.39275 40.4142 5.27823 39.6531L10.5223 38.2731L11.551 38.7666C15.5907 40.6986 20.4834 41.1837 24.8744 40.088C27.6427 39.3938 30.4111 38.0222 32.6275 36.2407C34.7853 34.4927 36.8679 31.8498 38.0472 29.3407C39.8454 25.5519 40.4057 21.4788 39.7116 17.3388C38.2981 8.92489 31.49 2.27576 23.0176 1.02957C21.9805 0.879021 19.622 0.761929 18.8525 0.828839ZM22.3987 4.42523C25.9282 4.91032 29.1064 6.50779 31.6991 9.09217C35.6719 13.0733 37.3279 18.5682 36.2072 24.0465C35.6719 26.6476 34.4341 29.2152 32.7195 31.2643C30.1268 34.3756 26.6475 36.3494 22.5743 37.052C21.4034 37.2444 18.702 37.2444 17.5561 37.052C15.4234 36.6756 13.5416 36.0065 11.7935 34.9945L11.0492 34.568L8.00479 35.3709C6.32369 35.8058 4.93532 36.1487 4.91859 36.132C4.90186 36.1153 5.24477 34.7603 5.69641 33.1211L6.50769 30.1436L6.08114 29.4494C3.82294 25.7526 3.08694 21.6293 3.92331 17.4642C5.10259 11.618 9.46844 6.79215 15.1808 5.01069C17.5979 4.25795 19.8478 4.07395 22.3987 4.42523Z" fill="white"/>
<path d="M12.563 11.5594C11.6263 11.8689 10.4052 13.4831 10.079 14.838C9.57717 16.9791 10.2295 19.1286 12.2368 21.8886C14.0601 24.3977 16.0339 26.3464 18.2001 27.7683C19.6052 28.6883 22.0474 29.7505 23.6616 30.1436C24.5064 30.3443 26.0369 30.361 26.7478 30.177C27.8518 29.8843 29.2318 28.9476 29.6751 28.1865C29.9679 27.693 30.1602 26.8566 30.1769 26.0955C30.1853 25.5017 30.1686 25.4264 29.9846 25.2926C29.5831 24.9832 25.7024 23.1933 25.3427 23.1431C24.9078 23.0762 24.8911 23.093 24.0464 24.1886C23.1765 25.3093 22.7667 25.7024 22.4907 25.7024C22.1394 25.7024 20.0067 24.6152 19.1285 23.9795C18.7103 23.6784 18.0496 23.1264 17.6649 22.7501C16.5023 21.6042 15.1725 19.7726 15.1725 19.3126C15.1725 19.162 15.3314 18.886 15.6241 18.518C16.5358 17.3806 16.7616 17.0042 16.7616 16.6362C16.7616 16.2013 15.1307 12.2369 14.7794 11.8271C14.5452 11.5511 14.5452 11.5511 13.667 11.5176C13.1819 11.5009 12.6885 11.5176 12.563 11.5594Z" fill="white"/>
</svg>
