<svg width="40" height="31" viewBox="0 0 40 31" fill="none" xmlns="http://www.w3.org/2000/svg">
<path d="M13.274 0.738042C10.1201 0.839781 6.55141 1.04326 5.80011 1.16065C4.49315 1.37195 3.47576 1.83369 2.56012 2.6476C1.84794 3.27369 1.44881 3.82934 1.05751 4.70586C0.587947 5.78585 0.306209 7.01454 0.149688 8.75193C-0.0459637 10.9119 -0.0537898 20.7962 0.149688 22.9641C0.494035 26.7753 1.48794 28.6849 3.71055 29.804C5.04098 30.4771 6.55141 30.6649 12.2957 30.8606C18.6192 31.0797 25.107 31.0406 30.9218 30.7432C34.2948 30.571 34.9991 30.4614 36.087 29.9527C37.6365 29.2327 38.6304 28.0432 39.2487 26.1962C39.8983 24.2554 40 22.7997 40 15.7171C39.9922 11.2563 39.9687 9.9728 39.867 8.78323C39.5226 4.97194 38.607 3.13282 36.4391 1.88847C35.8991 1.58326 35.0696 1.30934 34.2478 1.1763C31.8374 0.777172 19.8009 0.526738 13.274 0.738042ZM26.3122 3.1563C29.4739 3.25803 33.1365 3.45369 33.7705 3.55542C34.7644 3.71195 35.6722 4.16586 36.2122 4.78412C37.3 6.02063 37.6365 8.63454 37.6365 15.8736C37.6365 20.6084 37.48 23.4258 37.1435 24.6936C36.7444 26.2354 36.3452 26.9006 35.5157 27.464C34.6548 28.0588 34.1931 28.1371 30.7652 28.3171C24.1522 28.6536 17.7818 28.6693 10.261 28.3562C5.99576 28.1762 4.87663 27.9336 3.92968 26.9867C3.27229 26.3371 2.7949 24.9988 2.63055 23.4023C2.27838 19.7554 2.27838 11.7415 2.63838 8.31367C2.73229 7.38237 3.02185 6.29455 3.35837 5.5589C3.82794 4.55716 4.78272 3.84499 5.99576 3.60238C6.59836 3.47716 10.0184 3.27369 13.3131 3.16412C16.1383 3.07021 23.5731 3.07021 26.3122 3.1563Z" fill="white"/>
<path d="M16.0757 9.02574C15.4418 9.21356 15.0427 9.68313 14.9175 10.3796C14.8627 10.6614 14.8392 12.5475 14.8549 15.7327L14.8783 20.6474L15.074 20.9996C15.3714 21.524 15.8253 21.8057 16.4357 21.8448C16.8896 21.8761 16.9914 21.8527 17.4844 21.6022C18.6035 21.0309 26.234 16.9066 26.4374 16.7657C26.7348 16.5466 27.0479 15.8814 27.0479 15.4509C27.0479 15.0205 26.8366 14.5431 26.5313 14.2535C26.2887 14.0344 17.4766 9.19009 17.0383 9.04139C16.7409 8.93965 16.3888 8.93183 16.0757 9.02574ZM20.0514 13.4162C21.554 14.2379 23.0096 15.0283 23.2757 15.1848L23.7766 15.4588L21.0061 16.9457C19.4879 17.7596 18.0244 18.5501 17.7583 18.6909L17.2653 18.9648V15.4431C17.2653 13.5022 17.2809 11.9214 17.2966 11.9214C17.3122 11.9214 18.5488 12.5944 20.0514 13.4162Z" fill="white"/>
</svg>
